<mxfile host="app.diagrams.net" modified="2023-09-19T02:23:20.236Z" agent="Mozilla/5.0 (Windows NT 10.0; Win64; x64) AppleWebKit/537.36 (KHTML, like Gecko) Chrome/116.0.0.0 Safari/537.36" etag="f42Lb2cU8YcubZ7iCwl3" version="21.7.5" type="github">
  <diagram name="PÃ¡gina-1" id="6uPvpg0OalmCqpp9obf3">
    <mxGraphModel dx="1443" dy="750" grid="1" gridSize="10" guides="1" tooltips="1" connect="1" arrows="1" fold="1" page="1" pageScale="1" pageWidth="1169" pageHeight="827" background="#ffffff" math="0" shadow="0">
      <root>
        <mxCell id="0" />
        <mxCell id="1" parent="0" />
        <mxCell id="AJoo1v9-e0v7k2Sk35Ve-1" value="Users" style="shape=table;startSize=30;container=1;collapsible=1;childLayout=tableLayout;fixedRows=1;rowLines=0;fontStyle=1;align=center;resizeLast=1;html=1;labelBackgroundColor=none;fillColor=#21C0A5;strokeColor=#006658;fontColor=#5C5C5C;" vertex="1" parent="1">
          <mxGeometry x="40" y="132" width="180" height="120" as="geometry" />
        </mxCell>
        <mxCell id="AJoo1v9-e0v7k2Sk35Ve-2" value="" style="shape=tableRow;horizontal=0;startSize=0;swimlaneHead=0;swimlaneBody=0;fillColor=none;collapsible=0;dropTarget=0;points=[[0,0.5],[1,0.5]];portConstraint=eastwest;top=0;left=0;right=0;bottom=1;labelBackgroundColor=none;strokeColor=#006658;fontColor=#5C5C5C;" vertex="1" parent="AJoo1v9-e0v7k2Sk35Ve-1">
          <mxGeometry y="30" width="180" height="30" as="geometry" />
        </mxCell>
        <mxCell id="AJoo1v9-e0v7k2Sk35Ve-3" value="PK" style="shape=partialRectangle;connectable=0;fillColor=none;top=0;left=0;bottom=0;right=0;fontStyle=1;overflow=hidden;whiteSpace=wrap;html=1;labelBackgroundColor=none;strokeColor=#006658;fontColor=#5C5C5C;" vertex="1" parent="AJoo1v9-e0v7k2Sk35Ve-2">
          <mxGeometry width="30" height="30" as="geometry">
            <mxRectangle width="30" height="30" as="alternateBounds" />
          </mxGeometry>
        </mxCell>
        <mxCell id="AJoo1v9-e0v7k2Sk35Ve-4" value="ID" style="shape=partialRectangle;connectable=0;fillColor=none;top=0;left=0;bottom=0;right=0;align=center;spacingLeft=6;fontStyle=1;overflow=hidden;whiteSpace=wrap;html=1;labelBackgroundColor=none;strokeColor=#006658;fontColor=#5C5C5C;" vertex="1" parent="AJoo1v9-e0v7k2Sk35Ve-2">
          <mxGeometry x="30" width="150" height="30" as="geometry">
            <mxRectangle width="150" height="30" as="alternateBounds" />
          </mxGeometry>
        </mxCell>
        <mxCell id="AJoo1v9-e0v7k2Sk35Ve-5" value="" style="shape=tableRow;horizontal=0;startSize=0;swimlaneHead=0;swimlaneBody=0;fillColor=none;collapsible=0;dropTarget=0;points=[[0,0.5],[1,0.5]];portConstraint=eastwest;top=0;left=0;right=0;bottom=0;labelBackgroundColor=none;strokeColor=#006658;fontColor=#5C5C5C;" vertex="1" parent="AJoo1v9-e0v7k2Sk35Ve-1">
          <mxGeometry y="60" width="180" height="30" as="geometry" />
        </mxCell>
        <mxCell id="AJoo1v9-e0v7k2Sk35Ve-6" value="" style="shape=partialRectangle;connectable=0;fillColor=none;top=0;left=0;bottom=0;right=0;editable=1;overflow=hidden;whiteSpace=wrap;html=1;labelBackgroundColor=none;strokeColor=#006658;fontColor=#5C5C5C;" vertex="1" parent="AJoo1v9-e0v7k2Sk35Ve-5">
          <mxGeometry width="30" height="30" as="geometry">
            <mxRectangle width="30" height="30" as="alternateBounds" />
          </mxGeometry>
        </mxCell>
        <mxCell id="AJoo1v9-e0v7k2Sk35Ve-7" value="email" style="shape=partialRectangle;connectable=0;fillColor=none;top=0;left=0;bottom=0;right=0;align=left;spacingLeft=6;overflow=hidden;whiteSpace=wrap;html=1;labelBackgroundColor=none;strokeColor=#006658;fontColor=#5C5C5C;" vertex="1" parent="AJoo1v9-e0v7k2Sk35Ve-5">
          <mxGeometry x="30" width="150" height="30" as="geometry">
            <mxRectangle width="150" height="30" as="alternateBounds" />
          </mxGeometry>
        </mxCell>
        <mxCell id="AJoo1v9-e0v7k2Sk35Ve-8" value="" style="shape=tableRow;horizontal=0;startSize=0;swimlaneHead=0;swimlaneBody=0;fillColor=none;collapsible=0;dropTarget=0;points=[[0,0.5],[1,0.5]];portConstraint=eastwest;top=0;left=0;right=0;bottom=0;labelBackgroundColor=none;strokeColor=#006658;fontColor=#5C5C5C;" vertex="1" parent="AJoo1v9-e0v7k2Sk35Ve-1">
          <mxGeometry y="90" width="180" height="30" as="geometry" />
        </mxCell>
        <mxCell id="AJoo1v9-e0v7k2Sk35Ve-9" value="" style="shape=partialRectangle;connectable=0;fillColor=none;top=0;left=0;bottom=0;right=0;editable=1;overflow=hidden;whiteSpace=wrap;html=1;labelBackgroundColor=none;strokeColor=#006658;fontColor=#5C5C5C;" vertex="1" parent="AJoo1v9-e0v7k2Sk35Ve-8">
          <mxGeometry width="30" height="30" as="geometry">
            <mxRectangle width="30" height="30" as="alternateBounds" />
          </mxGeometry>
        </mxCell>
        <mxCell id="AJoo1v9-e0v7k2Sk35Ve-10" value="password" style="shape=partialRectangle;connectable=0;fillColor=none;top=0;left=0;bottom=0;right=0;align=left;spacingLeft=6;overflow=hidden;whiteSpace=wrap;html=1;labelBackgroundColor=none;strokeColor=#006658;fontColor=#5C5C5C;" vertex="1" parent="AJoo1v9-e0v7k2Sk35Ve-8">
          <mxGeometry x="30" width="150" height="30" as="geometry">
            <mxRectangle width="150" height="30" as="alternateBounds" />
          </mxGeometry>
        </mxCell>
        <mxCell id="AJoo1v9-e0v7k2Sk35Ve-14" value="Characters" style="shape=table;startSize=30;container=1;collapsible=1;childLayout=tableLayout;fixedRows=1;rowLines=0;fontStyle=1;align=center;resizeLast=1;html=1;labelBackgroundColor=none;fillColor=#21C0A5;strokeColor=#006658;fontColor=#5C5C5C;" vertex="1" parent="1">
          <mxGeometry x="490" y="42" width="180" height="264" as="geometry">
            <mxRectangle x="680" y="170" width="100" height="30" as="alternateBounds" />
          </mxGeometry>
        </mxCell>
        <mxCell id="AJoo1v9-e0v7k2Sk35Ve-15" value="" style="shape=tableRow;horizontal=0;startSize=0;swimlaneHead=0;swimlaneBody=0;fillColor=none;collapsible=0;dropTarget=0;points=[[0,0.5],[1,0.5]];portConstraint=eastwest;top=0;left=0;right=0;bottom=1;labelBackgroundColor=none;strokeColor=#006658;fontColor=#5C5C5C;" vertex="1" parent="AJoo1v9-e0v7k2Sk35Ve-14">
          <mxGeometry y="30" width="180" height="26" as="geometry" />
        </mxCell>
        <mxCell id="AJoo1v9-e0v7k2Sk35Ve-16" value="PK" style="shape=partialRectangle;connectable=0;fillColor=none;top=0;left=0;bottom=0;right=0;fontStyle=1;overflow=hidden;whiteSpace=wrap;html=1;labelBackgroundColor=none;strokeColor=#006658;fontColor=#5C5C5C;" vertex="1" parent="AJoo1v9-e0v7k2Sk35Ve-15">
          <mxGeometry width="30" height="26" as="geometry">
            <mxRectangle width="30" height="26" as="alternateBounds" />
          </mxGeometry>
        </mxCell>
        <mxCell id="AJoo1v9-e0v7k2Sk35Ve-17" value="ID" style="shape=partialRectangle;connectable=0;fillColor=none;top=0;left=0;bottom=0;right=0;align=center;spacingLeft=6;fontStyle=1;overflow=hidden;whiteSpace=wrap;html=1;labelBackgroundColor=none;strokeColor=#006658;fontColor=#5C5C5C;" vertex="1" parent="AJoo1v9-e0v7k2Sk35Ve-15">
          <mxGeometry x="30" width="150" height="26" as="geometry">
            <mxRectangle width="150" height="26" as="alternateBounds" />
          </mxGeometry>
        </mxCell>
        <mxCell id="AJoo1v9-e0v7k2Sk35Ve-18" value="" style="shape=tableRow;horizontal=0;startSize=0;swimlaneHead=0;swimlaneBody=0;fillColor=none;collapsible=0;dropTarget=0;points=[[0,0.5],[1,0.5]];portConstraint=eastwest;top=0;left=0;right=0;bottom=0;labelBackgroundColor=none;strokeColor=#006658;fontColor=#5C5C5C;" vertex="1" parent="AJoo1v9-e0v7k2Sk35Ve-14">
          <mxGeometry y="56" width="180" height="30" as="geometry" />
        </mxCell>
        <mxCell id="AJoo1v9-e0v7k2Sk35Ve-19" value="" style="shape=partialRectangle;connectable=0;fillColor=none;top=0;left=0;bottom=0;right=0;editable=1;overflow=hidden;whiteSpace=wrap;html=1;labelBackgroundColor=none;strokeColor=#006658;fontColor=#5C5C5C;" vertex="1" parent="AJoo1v9-e0v7k2Sk35Ve-18">
          <mxGeometry width="30" height="30" as="geometry">
            <mxRectangle width="30" height="30" as="alternateBounds" />
          </mxGeometry>
        </mxCell>
        <mxCell id="AJoo1v9-e0v7k2Sk35Ve-20" value="id" style="shape=partialRectangle;connectable=0;fillColor=none;top=0;left=0;bottom=0;right=0;align=left;spacingLeft=6;overflow=hidden;whiteSpace=wrap;html=1;labelBackgroundColor=none;strokeColor=#006658;fontColor=#5C5C5C;" vertex="1" parent="AJoo1v9-e0v7k2Sk35Ve-18">
          <mxGeometry x="30" width="150" height="30" as="geometry">
            <mxRectangle width="150" height="30" as="alternateBounds" />
          </mxGeometry>
        </mxCell>
        <mxCell id="AJoo1v9-e0v7k2Sk35Ve-21" value="" style="shape=tableRow;horizontal=0;startSize=0;swimlaneHead=0;swimlaneBody=0;fillColor=none;collapsible=0;dropTarget=0;points=[[0,0.5],[1,0.5]];portConstraint=eastwest;top=0;left=0;right=0;bottom=0;labelBackgroundColor=none;strokeColor=#006658;fontColor=#5C5C5C;" vertex="1" parent="AJoo1v9-e0v7k2Sk35Ve-14">
          <mxGeometry y="86" width="180" height="30" as="geometry" />
        </mxCell>
        <mxCell id="AJoo1v9-e0v7k2Sk35Ve-22" value="" style="shape=partialRectangle;connectable=0;fillColor=none;top=0;left=0;bottom=0;right=0;editable=1;overflow=hidden;whiteSpace=wrap;html=1;labelBackgroundColor=none;strokeColor=#006658;fontColor=#5C5C5C;" vertex="1" parent="AJoo1v9-e0v7k2Sk35Ve-21">
          <mxGeometry width="30" height="30" as="geometry">
            <mxRectangle width="30" height="30" as="alternateBounds" />
          </mxGeometry>
        </mxCell>
        <mxCell id="AJoo1v9-e0v7k2Sk35Ve-23" value="name" style="shape=partialRectangle;connectable=0;fillColor=none;top=0;left=0;bottom=0;right=0;align=left;spacingLeft=6;overflow=hidden;whiteSpace=wrap;html=1;labelBackgroundColor=none;strokeColor=#006658;fontColor=#5C5C5C;" vertex="1" parent="AJoo1v9-e0v7k2Sk35Ve-21">
          <mxGeometry x="30" width="150" height="30" as="geometry">
            <mxRectangle width="150" height="30" as="alternateBounds" />
          </mxGeometry>
        </mxCell>
        <mxCell id="AJoo1v9-e0v7k2Sk35Ve-52" value="" style="shape=tableRow;horizontal=0;startSize=0;swimlaneHead=0;swimlaneBody=0;fillColor=none;collapsible=0;dropTarget=0;points=[[0,0.5],[1,0.5]];portConstraint=eastwest;top=0;left=0;right=0;bottom=0;labelBackgroundColor=none;strokeColor=#006658;fontColor=#5C5C5C;" vertex="1" parent="AJoo1v9-e0v7k2Sk35Ve-14">
          <mxGeometry y="116" width="180" height="30" as="geometry" />
        </mxCell>
        <mxCell id="AJoo1v9-e0v7k2Sk35Ve-53" value="FK" style="shape=partialRectangle;connectable=0;fillColor=none;top=0;left=0;bottom=0;right=0;editable=1;overflow=hidden;labelBackgroundColor=none;strokeColor=#006658;fontColor=#5C5C5C;" vertex="1" parent="AJoo1v9-e0v7k2Sk35Ve-52">
          <mxGeometry width="30" height="30" as="geometry">
            <mxRectangle width="30" height="30" as="alternateBounds" />
          </mxGeometry>
        </mxCell>
        <mxCell id="AJoo1v9-e0v7k2Sk35Ve-54" value="ID_status" style="shape=partialRectangle;connectable=0;fillColor=none;top=0;left=0;bottom=0;right=0;align=left;spacingLeft=6;overflow=hidden;labelBackgroundColor=none;strokeColor=#006658;fontColor=#5C5C5C;" vertex="1" parent="AJoo1v9-e0v7k2Sk35Ve-52">
          <mxGeometry x="30" width="150" height="30" as="geometry">
            <mxRectangle width="150" height="30" as="alternateBounds" />
          </mxGeometry>
        </mxCell>
        <mxCell id="AJoo1v9-e0v7k2Sk35Ve-57" value="" style="shape=tableRow;horizontal=0;startSize=0;swimlaneHead=0;swimlaneBody=0;fillColor=none;collapsible=0;dropTarget=0;points=[[0,0.5],[1,0.5]];portConstraint=eastwest;top=0;left=0;right=0;bottom=0;labelBackgroundColor=none;strokeColor=#006658;fontColor=#5C5C5C;" vertex="1" parent="AJoo1v9-e0v7k2Sk35Ve-14">
          <mxGeometry y="146" width="180" height="30" as="geometry" />
        </mxCell>
        <mxCell id="AJoo1v9-e0v7k2Sk35Ve-58" value="FK" style="shape=partialRectangle;connectable=0;fillColor=none;top=0;left=0;bottom=0;right=0;editable=1;overflow=hidden;labelBackgroundColor=none;strokeColor=#006658;fontColor=#5C5C5C;" vertex="1" parent="AJoo1v9-e0v7k2Sk35Ve-57">
          <mxGeometry width="30" height="30" as="geometry">
            <mxRectangle width="30" height="30" as="alternateBounds" />
          </mxGeometry>
        </mxCell>
        <mxCell id="AJoo1v9-e0v7k2Sk35Ve-59" value="ID_specie" style="shape=partialRectangle;connectable=0;fillColor=none;top=0;left=0;bottom=0;right=0;align=left;spacingLeft=6;overflow=hidden;labelBackgroundColor=none;strokeColor=#006658;fontColor=#5C5C5C;" vertex="1" parent="AJoo1v9-e0v7k2Sk35Ve-57">
          <mxGeometry x="30" width="150" height="30" as="geometry">
            <mxRectangle width="150" height="30" as="alternateBounds" />
          </mxGeometry>
        </mxCell>
        <mxCell id="AJoo1v9-e0v7k2Sk35Ve-69" value="" style="shape=tableRow;horizontal=0;startSize=0;swimlaneHead=0;swimlaneBody=0;fillColor=none;collapsible=0;dropTarget=0;points=[[0,0.5],[1,0.5]];portConstraint=eastwest;top=0;left=0;right=0;bottom=0;labelBackgroundColor=none;strokeColor=#006658;fontColor=#5C5C5C;" vertex="1" parent="AJoo1v9-e0v7k2Sk35Ve-14">
          <mxGeometry y="176" width="180" height="30" as="geometry" />
        </mxCell>
        <mxCell id="AJoo1v9-e0v7k2Sk35Ve-70" value="FK" style="shape=partialRectangle;connectable=0;fillColor=none;top=0;left=0;bottom=0;right=0;editable=1;overflow=hidden;labelBackgroundColor=none;strokeColor=#006658;fontColor=#5C5C5C;" vertex="1" parent="AJoo1v9-e0v7k2Sk35Ve-69">
          <mxGeometry width="30" height="30" as="geometry">
            <mxRectangle width="30" height="30" as="alternateBounds" />
          </mxGeometry>
        </mxCell>
        <mxCell id="AJoo1v9-e0v7k2Sk35Ve-71" value="ID_gender" style="shape=partialRectangle;connectable=0;fillColor=none;top=0;left=0;bottom=0;right=0;align=left;spacingLeft=6;overflow=hidden;labelBackgroundColor=none;strokeColor=#006658;fontColor=#5C5C5C;" vertex="1" parent="AJoo1v9-e0v7k2Sk35Ve-69">
          <mxGeometry x="30" width="150" height="30" as="geometry">
            <mxRectangle width="150" height="30" as="alternateBounds" />
          </mxGeometry>
        </mxCell>
        <mxCell id="AJoo1v9-e0v7k2Sk35Ve-93" value="" style="shape=tableRow;horizontal=0;startSize=0;swimlaneHead=0;swimlaneBody=0;fillColor=none;collapsible=0;dropTarget=0;points=[[0,0.5],[1,0.5]];portConstraint=eastwest;top=0;left=0;right=0;bottom=0;labelBackgroundColor=none;strokeColor=#006658;fontColor=#5C5C5C;" vertex="1" parent="AJoo1v9-e0v7k2Sk35Ve-14">
          <mxGeometry y="206" width="180" height="30" as="geometry" />
        </mxCell>
        <mxCell id="AJoo1v9-e0v7k2Sk35Ve-94" value="" style="shape=partialRectangle;connectable=0;fillColor=none;top=0;left=0;bottom=0;right=0;editable=1;overflow=hidden;labelBackgroundColor=none;strokeColor=#006658;fontColor=#5C5C5C;" vertex="1" parent="AJoo1v9-e0v7k2Sk35Ve-93">
          <mxGeometry width="30" height="30" as="geometry">
            <mxRectangle width="30" height="30" as="alternateBounds" />
          </mxGeometry>
        </mxCell>
        <mxCell id="AJoo1v9-e0v7k2Sk35Ve-95" value="origin" style="shape=partialRectangle;connectable=0;fillColor=none;top=0;left=0;bottom=0;right=0;align=left;spacingLeft=6;overflow=hidden;labelBackgroundColor=none;strokeColor=#006658;fontColor=#5C5C5C;" vertex="1" parent="AJoo1v9-e0v7k2Sk35Ve-93">
          <mxGeometry x="30" width="150" height="30" as="geometry">
            <mxRectangle width="150" height="30" as="alternateBounds" />
          </mxGeometry>
        </mxCell>
        <mxCell id="AJoo1v9-e0v7k2Sk35Ve-97" value="" style="shape=tableRow;horizontal=0;startSize=0;swimlaneHead=0;swimlaneBody=0;fillColor=none;collapsible=0;dropTarget=0;points=[[0,0.5],[1,0.5]];portConstraint=eastwest;top=0;left=0;right=0;bottom=0;labelBackgroundColor=none;strokeColor=#006658;fontColor=#5C5C5C;" vertex="1" parent="AJoo1v9-e0v7k2Sk35Ve-14">
          <mxGeometry y="236" width="180" height="24" as="geometry" />
        </mxCell>
        <mxCell id="AJoo1v9-e0v7k2Sk35Ve-98" value="" style="shape=partialRectangle;connectable=0;fillColor=none;top=0;left=0;bottom=0;right=0;editable=1;overflow=hidden;labelBackgroundColor=none;strokeColor=#006658;fontColor=#5C5C5C;" vertex="1" parent="AJoo1v9-e0v7k2Sk35Ve-97">
          <mxGeometry width="30" height="24" as="geometry">
            <mxRectangle width="30" height="24" as="alternateBounds" />
          </mxGeometry>
        </mxCell>
        <mxCell id="AJoo1v9-e0v7k2Sk35Ve-99" value="image" style="shape=partialRectangle;connectable=0;fillColor=none;top=0;left=0;bottom=0;right=0;align=left;spacingLeft=6;overflow=hidden;labelBackgroundColor=none;strokeColor=#006658;fontColor=#5C5C5C;" vertex="1" parent="AJoo1v9-e0v7k2Sk35Ve-97">
          <mxGeometry x="30" width="150" height="24" as="geometry">
            <mxRectangle width="150" height="24" as="alternateBounds" />
          </mxGeometry>
        </mxCell>
        <mxCell id="AJoo1v9-e0v7k2Sk35Ve-31" value="" style="shape=tableRow;horizontal=0;startSize=0;swimlaneHead=0;swimlaneBody=0;fillColor=none;collapsible=0;dropTarget=0;points=[[0,0.5],[1,0.5]];portConstraint=eastwest;top=0;left=0;right=0;bottom=0;labelBackgroundColor=none;strokeColor=#006658;fontColor=#5C5C5C;" vertex="1" parent="1">
          <mxGeometry x="520" y="262" width="200" height="30" as="geometry" />
        </mxCell>
        <mxCell id="AJoo1v9-e0v7k2Sk35Ve-34" value="" style="shape=tableRow;horizontal=0;startSize=0;swimlaneHead=0;swimlaneBody=0;fillColor=none;collapsible=0;dropTarget=0;points=[[0,0.5],[1,0.5]];portConstraint=eastwest;top=0;left=0;right=0;bottom=0;labelBackgroundColor=none;strokeColor=#006658;fontColor=#5C5C5C;" vertex="1" parent="1">
          <mxGeometry x="500" y="302" width="200" height="30" as="geometry" />
        </mxCell>
        <mxCell id="AJoo1v9-e0v7k2Sk35Ve-35" value="" style="shape=partialRectangle;connectable=0;fillColor=none;top=0;left=0;bottom=0;right=0;editable=1;overflow=hidden;labelBackgroundColor=none;strokeColor=#006658;fontColor=#5C5C5C;" vertex="1" parent="AJoo1v9-e0v7k2Sk35Ve-34">
          <mxGeometry width="30" height="30" as="geometry">
            <mxRectangle width="30" height="30" as="alternateBounds" />
          </mxGeometry>
        </mxCell>
        <mxCell id="AJoo1v9-e0v7k2Sk35Ve-100" value="Favorites" style="shape=table;startSize=30;container=1;collapsible=1;childLayout=tableLayout;fixedRows=1;rowLines=0;fontStyle=1;align=center;resizeLast=1;html=1;labelBackgroundColor=none;fillColor=#21C0A5;strokeColor=#006658;fontColor=#5C5C5C;" vertex="1" parent="1">
          <mxGeometry x="230" y="432" width="180" height="120" as="geometry" />
        </mxCell>
        <mxCell id="AJoo1v9-e0v7k2Sk35Ve-101" value="" style="shape=tableRow;horizontal=0;startSize=0;swimlaneHead=0;swimlaneBody=0;fillColor=none;collapsible=0;dropTarget=0;points=[[0,0.5],[1,0.5]];portConstraint=eastwest;top=0;left=0;right=0;bottom=1;labelBackgroundColor=none;strokeColor=#006658;fontColor=#5C5C5C;" vertex="1" parent="AJoo1v9-e0v7k2Sk35Ve-100">
          <mxGeometry y="30" width="180" height="30" as="geometry" />
        </mxCell>
        <mxCell id="AJoo1v9-e0v7k2Sk35Ve-102" value="PK" style="shape=partialRectangle;connectable=0;fillColor=none;top=0;left=0;bottom=0;right=0;fontStyle=1;overflow=hidden;whiteSpace=wrap;html=1;labelBackgroundColor=none;strokeColor=#006658;fontColor=#5C5C5C;" vertex="1" parent="AJoo1v9-e0v7k2Sk35Ve-101">
          <mxGeometry width="30" height="30" as="geometry">
            <mxRectangle width="30" height="30" as="alternateBounds" />
          </mxGeometry>
        </mxCell>
        <mxCell id="AJoo1v9-e0v7k2Sk35Ve-103" value="ID" style="shape=partialRectangle;connectable=0;fillColor=none;top=0;left=0;bottom=0;right=0;align=center;spacingLeft=6;fontStyle=1;overflow=hidden;whiteSpace=wrap;html=1;labelBackgroundColor=none;strokeColor=#006658;fontColor=#5C5C5C;" vertex="1" parent="AJoo1v9-e0v7k2Sk35Ve-101">
          <mxGeometry x="30" width="150" height="30" as="geometry">
            <mxRectangle width="150" height="30" as="alternateBounds" />
          </mxGeometry>
        </mxCell>
        <mxCell id="AJoo1v9-e0v7k2Sk35Ve-104" value="" style="shape=tableRow;horizontal=0;startSize=0;swimlaneHead=0;swimlaneBody=0;fillColor=none;collapsible=0;dropTarget=0;points=[[0,0.5],[1,0.5]];portConstraint=eastwest;top=0;left=0;right=0;bottom=0;labelBackgroundColor=none;strokeColor=#006658;fontColor=#5C5C5C;" vertex="1" parent="AJoo1v9-e0v7k2Sk35Ve-100">
          <mxGeometry y="60" width="180" height="30" as="geometry" />
        </mxCell>
        <mxCell id="AJoo1v9-e0v7k2Sk35Ve-105" value="FK" style="shape=partialRectangle;connectable=0;fillColor=none;top=0;left=0;bottom=0;right=0;editable=1;overflow=hidden;whiteSpace=wrap;html=1;labelBackgroundColor=none;strokeColor=#006658;fontColor=#5C5C5C;" vertex="1" parent="AJoo1v9-e0v7k2Sk35Ve-104">
          <mxGeometry width="30" height="30" as="geometry">
            <mxRectangle width="30" height="30" as="alternateBounds" />
          </mxGeometry>
        </mxCell>
        <mxCell id="AJoo1v9-e0v7k2Sk35Ve-106" value="ID_Users" style="shape=partialRectangle;connectable=0;fillColor=none;top=0;left=0;bottom=0;right=0;align=left;spacingLeft=6;overflow=hidden;whiteSpace=wrap;html=1;labelBackgroundColor=none;strokeColor=#006658;fontColor=#5C5C5C;" vertex="1" parent="AJoo1v9-e0v7k2Sk35Ve-104">
          <mxGeometry x="30" width="150" height="30" as="geometry">
            <mxRectangle width="150" height="30" as="alternateBounds" />
          </mxGeometry>
        </mxCell>
        <mxCell id="AJoo1v9-e0v7k2Sk35Ve-107" value="" style="shape=tableRow;horizontal=0;startSize=0;swimlaneHead=0;swimlaneBody=0;fillColor=none;collapsible=0;dropTarget=0;points=[[0,0.5],[1,0.5]];portConstraint=eastwest;top=0;left=0;right=0;bottom=0;labelBackgroundColor=none;strokeColor=#006658;fontColor=#5C5C5C;" vertex="1" parent="AJoo1v9-e0v7k2Sk35Ve-100">
          <mxGeometry y="90" width="180" height="30" as="geometry" />
        </mxCell>
        <mxCell id="AJoo1v9-e0v7k2Sk35Ve-108" value="FK" style="shape=partialRectangle;connectable=0;fillColor=none;top=0;left=0;bottom=0;right=0;editable=1;overflow=hidden;whiteSpace=wrap;html=1;labelBackgroundColor=none;strokeColor=#006658;fontColor=#5C5C5C;" vertex="1" parent="AJoo1v9-e0v7k2Sk35Ve-107">
          <mxGeometry width="30" height="30" as="geometry">
            <mxRectangle width="30" height="30" as="alternateBounds" />
          </mxGeometry>
        </mxCell>
        <mxCell id="AJoo1v9-e0v7k2Sk35Ve-109" value="ID_Characters" style="shape=partialRectangle;connectable=0;fillColor=none;top=0;left=0;bottom=0;right=0;align=left;spacingLeft=6;overflow=hidden;whiteSpace=wrap;html=1;labelBackgroundColor=none;strokeColor=#006658;fontColor=#5C5C5C;" vertex="1" parent="AJoo1v9-e0v7k2Sk35Ve-107">
          <mxGeometry x="30" width="150" height="30" as="geometry">
            <mxRectangle width="150" height="30" as="alternateBounds" />
          </mxGeometry>
        </mxCell>
        <mxCell id="AJoo1v9-e0v7k2Sk35Ve-127" value="" style="endArrow=none;html=1;rounded=0;exitX=-0.022;exitY=0.8;exitDx=0;exitDy=0;exitPerimeter=0;entryX=0.5;entryY=1;entryDx=0;entryDy=0;entryPerimeter=0;labelBackgroundColor=none;strokeColor=#006658;fontColor=default;" edge="1" parent="1" source="AJoo1v9-e0v7k2Sk35Ve-104" target="AJoo1v9-e0v7k2Sk35Ve-8">
          <mxGeometry width="50" height="50" relative="1" as="geometry">
            <mxPoint x="70" y="392" as="sourcePoint" />
            <mxPoint x="130" y="262" as="targetPoint" />
            <Array as="points">
              <mxPoint x="130" y="516" />
            </Array>
          </mxGeometry>
        </mxCell>
        <mxCell id="AJoo1v9-e0v7k2Sk35Ve-128" value="1" style="edgeLabel;html=1;align=center;verticalAlign=middle;resizable=0;points=[];fontStyle=1;labelBackgroundColor=none;fontColor=#5C5C5C;fontSize=15;" vertex="1" connectable="0" parent="AJoo1v9-e0v7k2Sk35Ve-127">
          <mxGeometry x="0.8278" relative="1" as="geometry">
            <mxPoint x="-20" y="-13" as="offset" />
          </mxGeometry>
        </mxCell>
        <mxCell id="AJoo1v9-e0v7k2Sk35Ve-129" value="N" style="edgeLabel;html=1;align=center;verticalAlign=middle;resizable=0;points=[];labelBackgroundColor=none;fontColor=#5C5C5C;fontSize=15;fontStyle=1" vertex="1" connectable="0" parent="AJoo1v9-e0v7k2Sk35Ve-127">
          <mxGeometry x="-0.8665" y="2" relative="1" as="geometry">
            <mxPoint x="-2" y="-16" as="offset" />
          </mxGeometry>
        </mxCell>
        <mxCell id="AJoo1v9-e0v7k2Sk35Ve-130" value="" style="endArrow=none;html=1;rounded=0;strokeColor=#006658;fontColor=#5C5C5C;fillColor=#21C0A5;exitX=1.028;exitY=0.867;exitDx=0;exitDy=0;exitPerimeter=0;entryX=0.5;entryY=1;entryDx=0;entryDy=0;" edge="1" parent="1" source="AJoo1v9-e0v7k2Sk35Ve-104" target="AJoo1v9-e0v7k2Sk35Ve-14">
          <mxGeometry width="50" height="50" relative="1" as="geometry">
            <mxPoint x="490" y="492" as="sourcePoint" />
            <mxPoint x="540" y="442" as="targetPoint" />
            <Array as="points">
              <mxPoint x="580" y="518" />
            </Array>
          </mxGeometry>
        </mxCell>
        <mxCell id="AJoo1v9-e0v7k2Sk35Ve-131" value="N" style="edgeLabel;html=1;align=center;verticalAlign=middle;resizable=0;points=[];fontSize=15;labelBackgroundColor=none;fontColor=#5C5C5C;fontStyle=1" vertex="1" connectable="0" parent="1">
          <mxGeometry x="474.9999998420294" y="122.00131035486322" as="geometry">
            <mxPoint x="129" y="220" as="offset" />
          </mxGeometry>
        </mxCell>
        <mxCell id="AJoo1v9-e0v7k2Sk35Ve-132" value="N" style="edgeLabel;html=1;align=center;verticalAlign=middle;resizable=0;points=[];labelBackgroundColor=none;fontColor=#5C5C5C;fontSize=15;fontStyle=1" vertex="1" connectable="0" parent="1">
          <mxGeometry x="199.99999999999994" y="512" as="geometry">
            <mxPoint x="236" y="20" as="offset" />
          </mxGeometry>
        </mxCell>
        <mxCell id="AJoo1v9-e0v7k2Sk35Ve-134" value="Gender" style="shape=table;startSize=30;container=1;collapsible=1;childLayout=tableLayout;fixedRows=1;rowLines=0;fontStyle=1;align=center;resizeLast=1;html=1;strokeColor=#006658;fontColor=#5C5C5C;fillColor=#21C0A5;" vertex="1" parent="1">
          <mxGeometry x="890" y="42" width="180" height="90" as="geometry" />
        </mxCell>
        <mxCell id="AJoo1v9-e0v7k2Sk35Ve-135" value="" style="shape=tableRow;horizontal=0;startSize=0;swimlaneHead=0;swimlaneBody=0;fillColor=none;collapsible=0;dropTarget=0;points=[[0,0.5],[1,0.5]];portConstraint=eastwest;top=0;left=0;right=0;bottom=1;strokeColor=#006658;fontColor=#5C5C5C;" vertex="1" parent="AJoo1v9-e0v7k2Sk35Ve-134">
          <mxGeometry y="30" width="180" height="30" as="geometry" />
        </mxCell>
        <mxCell id="AJoo1v9-e0v7k2Sk35Ve-136" value="PK" style="shape=partialRectangle;connectable=0;fillColor=none;top=0;left=0;bottom=0;right=0;fontStyle=1;overflow=hidden;whiteSpace=wrap;html=1;strokeColor=#006658;fontColor=#5C5C5C;" vertex="1" parent="AJoo1v9-e0v7k2Sk35Ve-135">
          <mxGeometry width="30" height="30" as="geometry">
            <mxRectangle width="30" height="30" as="alternateBounds" />
          </mxGeometry>
        </mxCell>
        <mxCell id="AJoo1v9-e0v7k2Sk35Ve-137" value="ID" style="shape=partialRectangle;connectable=0;fillColor=none;top=0;left=0;bottom=0;right=0;align=center;spacingLeft=6;fontStyle=5;overflow=hidden;whiteSpace=wrap;html=1;strokeColor=#006658;fontColor=#5C5C5C;" vertex="1" parent="AJoo1v9-e0v7k2Sk35Ve-135">
          <mxGeometry x="30" width="150" height="30" as="geometry">
            <mxRectangle width="150" height="30" as="alternateBounds" />
          </mxGeometry>
        </mxCell>
        <mxCell id="AJoo1v9-e0v7k2Sk35Ve-138" value="" style="shape=tableRow;horizontal=0;startSize=0;swimlaneHead=0;swimlaneBody=0;fillColor=none;collapsible=0;dropTarget=0;points=[[0,0.5],[1,0.5]];portConstraint=eastwest;top=0;left=0;right=0;bottom=0;strokeColor=#006658;fontColor=#5C5C5C;" vertex="1" parent="AJoo1v9-e0v7k2Sk35Ve-134">
          <mxGeometry y="60" width="180" height="30" as="geometry" />
        </mxCell>
        <mxCell id="AJoo1v9-e0v7k2Sk35Ve-139" value="" style="shape=partialRectangle;connectable=0;fillColor=none;top=0;left=0;bottom=0;right=0;editable=1;overflow=hidden;whiteSpace=wrap;html=1;strokeColor=#006658;fontColor=#5C5C5C;" vertex="1" parent="AJoo1v9-e0v7k2Sk35Ve-138">
          <mxGeometry width="30" height="30" as="geometry">
            <mxRectangle width="30" height="30" as="alternateBounds" />
          </mxGeometry>
        </mxCell>
        <mxCell id="AJoo1v9-e0v7k2Sk35Ve-140" value="gender" style="shape=partialRectangle;connectable=0;fillColor=none;top=0;left=0;bottom=0;right=0;align=left;spacingLeft=6;overflow=hidden;whiteSpace=wrap;html=1;strokeColor=#006658;fontColor=#5C5C5C;" vertex="1" parent="AJoo1v9-e0v7k2Sk35Ve-138">
          <mxGeometry x="30" width="150" height="30" as="geometry">
            <mxRectangle width="150" height="30" as="alternateBounds" />
          </mxGeometry>
        </mxCell>
        <mxCell id="AJoo1v9-e0v7k2Sk35Ve-152" value="Species" style="shape=table;startSize=30;container=1;collapsible=1;childLayout=tableLayout;fixedRows=1;rowLines=0;fontStyle=1;align=center;resizeLast=1;html=1;strokeColor=#006658;fontColor=#5C5C5C;fillColor=#21C0A5;" vertex="1" parent="1">
          <mxGeometry x="890" y="202" width="180" height="90" as="geometry" />
        </mxCell>
        <mxCell id="AJoo1v9-e0v7k2Sk35Ve-153" value="" style="shape=tableRow;horizontal=0;startSize=0;swimlaneHead=0;swimlaneBody=0;fillColor=none;collapsible=0;dropTarget=0;points=[[0,0.5],[1,0.5]];portConstraint=eastwest;top=0;left=0;right=0;bottom=1;strokeColor=#006658;fontColor=#5C5C5C;" vertex="1" parent="AJoo1v9-e0v7k2Sk35Ve-152">
          <mxGeometry y="30" width="180" height="30" as="geometry" />
        </mxCell>
        <mxCell id="AJoo1v9-e0v7k2Sk35Ve-154" value="PK" style="shape=partialRectangle;connectable=0;fillColor=none;top=0;left=0;bottom=0;right=0;fontStyle=1;overflow=hidden;whiteSpace=wrap;html=1;strokeColor=#006658;fontColor=#5C5C5C;" vertex="1" parent="AJoo1v9-e0v7k2Sk35Ve-153">
          <mxGeometry width="30" height="30" as="geometry">
            <mxRectangle width="30" height="30" as="alternateBounds" />
          </mxGeometry>
        </mxCell>
        <mxCell id="AJoo1v9-e0v7k2Sk35Ve-155" value="ID" style="shape=partialRectangle;connectable=0;fillColor=none;top=0;left=0;bottom=0;right=0;align=center;spacingLeft=6;fontStyle=5;overflow=hidden;whiteSpace=wrap;html=1;strokeColor=#006658;fontColor=#5C5C5C;" vertex="1" parent="AJoo1v9-e0v7k2Sk35Ve-153">
          <mxGeometry x="30" width="150" height="30" as="geometry">
            <mxRectangle width="150" height="30" as="alternateBounds" />
          </mxGeometry>
        </mxCell>
        <mxCell id="AJoo1v9-e0v7k2Sk35Ve-156" value="" style="shape=tableRow;horizontal=0;startSize=0;swimlaneHead=0;swimlaneBody=0;fillColor=none;collapsible=0;dropTarget=0;points=[[0,0.5],[1,0.5]];portConstraint=eastwest;top=0;left=0;right=0;bottom=0;strokeColor=#006658;fontColor=#5C5C5C;" vertex="1" parent="AJoo1v9-e0v7k2Sk35Ve-152">
          <mxGeometry y="60" width="180" height="30" as="geometry" />
        </mxCell>
        <mxCell id="AJoo1v9-e0v7k2Sk35Ve-157" value="" style="shape=partialRectangle;connectable=0;fillColor=none;top=0;left=0;bottom=0;right=0;editable=1;overflow=hidden;whiteSpace=wrap;html=1;strokeColor=#006658;fontColor=#5C5C5C;" vertex="1" parent="AJoo1v9-e0v7k2Sk35Ve-156">
          <mxGeometry width="30" height="30" as="geometry">
            <mxRectangle width="30" height="30" as="alternateBounds" />
          </mxGeometry>
        </mxCell>
        <mxCell id="AJoo1v9-e0v7k2Sk35Ve-158" value="specie" style="shape=partialRectangle;connectable=0;fillColor=none;top=0;left=0;bottom=0;right=0;align=left;spacingLeft=6;overflow=hidden;whiteSpace=wrap;html=1;strokeColor=#006658;fontColor=#5C5C5C;" vertex="1" parent="AJoo1v9-e0v7k2Sk35Ve-156">
          <mxGeometry x="30" width="150" height="30" as="geometry">
            <mxRectangle width="150" height="30" as="alternateBounds" />
          </mxGeometry>
        </mxCell>
        <mxCell id="AJoo1v9-e0v7k2Sk35Ve-159" value="Status" style="shape=table;startSize=30;container=1;collapsible=1;childLayout=tableLayout;fixedRows=1;rowLines=0;fontStyle=1;align=center;resizeLast=1;html=1;strokeColor=#006658;fontColor=#5C5C5C;fillColor=#21C0A5;" vertex="1" parent="1">
          <mxGeometry x="890" y="369" width="180" height="90" as="geometry" />
        </mxCell>
        <mxCell id="AJoo1v9-e0v7k2Sk35Ve-160" value="" style="shape=tableRow;horizontal=0;startSize=0;swimlaneHead=0;swimlaneBody=0;fillColor=none;collapsible=0;dropTarget=0;points=[[0,0.5],[1,0.5]];portConstraint=eastwest;top=0;left=0;right=0;bottom=1;strokeColor=#006658;fontColor=#5C5C5C;" vertex="1" parent="AJoo1v9-e0v7k2Sk35Ve-159">
          <mxGeometry y="30" width="180" height="30" as="geometry" />
        </mxCell>
        <mxCell id="AJoo1v9-e0v7k2Sk35Ve-161" value="PK" style="shape=partialRectangle;connectable=0;fillColor=none;top=0;left=0;bottom=0;right=0;fontStyle=1;overflow=hidden;whiteSpace=wrap;html=1;strokeColor=#006658;fontColor=#5C5C5C;" vertex="1" parent="AJoo1v9-e0v7k2Sk35Ve-160">
          <mxGeometry width="30" height="30" as="geometry">
            <mxRectangle width="30" height="30" as="alternateBounds" />
          </mxGeometry>
        </mxCell>
        <mxCell id="AJoo1v9-e0v7k2Sk35Ve-162" value="ID" style="shape=partialRectangle;connectable=0;fillColor=none;top=0;left=0;bottom=0;right=0;align=center;spacingLeft=6;fontStyle=5;overflow=hidden;whiteSpace=wrap;html=1;strokeColor=#006658;fontColor=#5C5C5C;" vertex="1" parent="AJoo1v9-e0v7k2Sk35Ve-160">
          <mxGeometry x="30" width="150" height="30" as="geometry">
            <mxRectangle width="150" height="30" as="alternateBounds" />
          </mxGeometry>
        </mxCell>
        <mxCell id="AJoo1v9-e0v7k2Sk35Ve-163" value="" style="shape=tableRow;horizontal=0;startSize=0;swimlaneHead=0;swimlaneBody=0;fillColor=none;collapsible=0;dropTarget=0;points=[[0,0.5],[1,0.5]];portConstraint=eastwest;top=0;left=0;right=0;bottom=0;strokeColor=#006658;fontColor=#5C5C5C;" vertex="1" parent="AJoo1v9-e0v7k2Sk35Ve-159">
          <mxGeometry y="60" width="180" height="30" as="geometry" />
        </mxCell>
        <mxCell id="AJoo1v9-e0v7k2Sk35Ve-164" value="" style="shape=partialRectangle;connectable=0;fillColor=none;top=0;left=0;bottom=0;right=0;editable=1;overflow=hidden;whiteSpace=wrap;html=1;strokeColor=#006658;fontColor=#5C5C5C;" vertex="1" parent="AJoo1v9-e0v7k2Sk35Ve-163">
          <mxGeometry width="30" height="30" as="geometry">
            <mxRectangle width="30" height="30" as="alternateBounds" />
          </mxGeometry>
        </mxCell>
        <mxCell id="AJoo1v9-e0v7k2Sk35Ve-165" value="status" style="shape=partialRectangle;connectable=0;fillColor=none;top=0;left=0;bottom=0;right=0;align=left;spacingLeft=6;overflow=hidden;whiteSpace=wrap;html=1;strokeColor=#006658;fontColor=#5C5C5C;" vertex="1" parent="AJoo1v9-e0v7k2Sk35Ve-163">
          <mxGeometry x="30" width="150" height="30" as="geometry">
            <mxRectangle width="150" height="30" as="alternateBounds" />
          </mxGeometry>
        </mxCell>
        <mxCell id="AJoo1v9-e0v7k2Sk35Ve-169" value="" style="endArrow=none;html=1;rounded=0;strokeColor=#006658;fontColor=#5C5C5C;fillColor=#21C0A5;entryX=0;entryY=0.5;entryDx=0;entryDy=0;" edge="1" parent="1" target="AJoo1v9-e0v7k2Sk35Ve-135">
          <mxGeometry relative="1" as="geometry">
            <mxPoint x="670" y="86.5" as="sourcePoint" />
            <mxPoint x="830" y="86.5" as="targetPoint" />
          </mxGeometry>
        </mxCell>
        <mxCell id="AJoo1v9-e0v7k2Sk35Ve-170" value="" style="endArrow=none;html=1;rounded=0;strokeColor=#006658;fontColor=#5C5C5C;fillColor=#21C0A5;entryX=-0.022;entryY=0.133;entryDx=0;entryDy=0;entryPerimeter=0;" edge="1" parent="1" target="AJoo1v9-e0v7k2Sk35Ve-57">
          <mxGeometry relative="1" as="geometry">
            <mxPoint x="220" y="191.5" as="sourcePoint" />
            <mxPoint x="380" y="191.5" as="targetPoint" />
          </mxGeometry>
        </mxCell>
        <mxCell id="AJoo1v9-e0v7k2Sk35Ve-171" value="N" style="edgeLabel;html=1;align=center;verticalAlign=middle;resizable=0;points=[];fontStyle=1;labelBackgroundColor=none;fontColor=#5C5C5C;fontSize=15;" vertex="1" connectable="0" parent="1">
          <mxGeometry x="120" y="282.03999999999996" as="geometry">
            <mxPoint x="336" y="-105" as="offset" />
          </mxGeometry>
        </mxCell>
        <mxCell id="AJoo1v9-e0v7k2Sk35Ve-172" value="1" style="edgeLabel;html=1;align=center;verticalAlign=middle;resizable=0;points=[];fontStyle=1;labelBackgroundColor=none;fontColor=#5C5C5C;fontSize=15;" vertex="1" connectable="0" parent="1">
          <mxGeometry x="120" y="280.03999999999996" as="geometry">
            <mxPoint x="108" y="-74" as="offset" />
          </mxGeometry>
        </mxCell>
        <mxCell id="AJoo1v9-e0v7k2Sk35Ve-173" value="1" style="edgeLabel;html=1;align=center;verticalAlign=middle;resizable=0;points=[];fontStyle=1;labelBackgroundColor=none;fontColor=#5C5C5C;fontSize=15;" vertex="1" connectable="0" parent="1">
          <mxGeometry x="120" y="280.03999999999996" as="geometry">
            <mxPoint x="571" y="-172" as="offset" />
          </mxGeometry>
        </mxCell>
        <mxCell id="AJoo1v9-e0v7k2Sk35Ve-174" value="1" style="edgeLabel;html=1;align=center;verticalAlign=middle;resizable=0;points=[];fontStyle=1;labelBackgroundColor=none;fontColor=#5C5C5C;fontSize=15;" vertex="1" connectable="0" parent="1">
          <mxGeometry x="300" y="239.99999999999997" as="geometry">
            <mxPoint x="571" y="-172" as="offset" />
          </mxGeometry>
        </mxCell>
        <mxCell id="AJoo1v9-e0v7k2Sk35Ve-175" value="" style="endArrow=none;html=1;rounded=0;strokeColor=#006658;fontColor=#5C5C5C;fillColor=#21C0A5;entryX=-0.006;entryY=1.133;entryDx=0;entryDy=0;entryPerimeter=0;" edge="1" parent="1" target="AJoo1v9-e0v7k2Sk35Ve-153">
          <mxGeometry relative="1" as="geometry">
            <mxPoint x="670" y="188" as="sourcePoint" />
            <mxPoint x="886" y="261" as="targetPoint" />
            <Array as="points">
              <mxPoint x="776" y="190" />
            </Array>
          </mxGeometry>
        </mxCell>
        <mxCell id="AJoo1v9-e0v7k2Sk35Ve-176" value="1" style="edgeLabel;html=1;align=center;verticalAlign=middle;resizable=0;points=[];fontStyle=1;labelBackgroundColor=none;fontColor=#5C5C5C;fontSize=15;" vertex="1" connectable="0" parent="1">
          <mxGeometry x="120" y="291.99999999999994" as="geometry">
            <mxPoint x="570" y="-82" as="offset" />
          </mxGeometry>
        </mxCell>
        <mxCell id="AJoo1v9-e0v7k2Sk35Ve-177" value="1" style="edgeLabel;html=1;align=center;verticalAlign=middle;resizable=0;points=[];fontStyle=1;labelBackgroundColor=none;fontColor=#5C5C5C;fontSize=15;" vertex="1" connectable="0" parent="1">
          <mxGeometry x="300" y="305.99999999999994" as="geometry">
            <mxPoint x="570" y="-82" as="offset" />
          </mxGeometry>
        </mxCell>
        <mxCell id="AJoo1v9-e0v7k2Sk35Ve-178" value="" style="endArrow=none;html=1;rounded=0;strokeColor=#006658;fontColor=#5C5C5C;fillColor=#21C0A5;exitX=0.745;exitY=1.033;exitDx=0;exitDy=0;exitPerimeter=0;entryX=-0.006;entryY=0.033;entryDx=0;entryDy=0;entryPerimeter=0;" edge="1" parent="1">
          <mxGeometry relative="1" as="geometry">
            <mxPoint x="670" y="292.99" as="sourcePoint" />
            <mxPoint x="889.9200000000001" y="429.99" as="targetPoint" />
          </mxGeometry>
        </mxCell>
      </root>
    </mxGraphModel>
  </diagram>
</mxfile>
